<svg width="1280" height="300" viewBox="0 0 1280 300" fill="none" xmlns="http://www.w3.org/2000/svg">
<path fill-rule="evenodd" clip-rule="evenodd" d="M1.00002 106.521C-31.5307 126.913 -50.9997 152.83 -50.9997 181.04C-50.9998 246.74 54.5994 300 184.863 300C264.027 300 334.082 280.329 376.862 250.15C391.277 252.214 406.492 253.319 422.218 253.319C479.783 253.319 530.491 238.515 560.192 216.043C581.996 227.859 613.102 235.249 647.631 235.249C694.308 235.249 734.731 221.743 754.373 202.056C787.036 211.671 825.03 217.179 865.576 217.179C939.544 217.179 1005.02 198.846 1045.12 170.697C1058.3 172.531 1072.18 173.51 1086.51 173.51C1110.88 173.51 1133.93 170.68 1154.45 165.635C1177.06 185.63 1219.73 199.109 1268.63 199.109C1341.19 199.109 1400 169.445 1400 132.853C1400 99.0559 1349.83 71.1692 1285 67.1058L1285 -99.9999L1.00003 -100L1.00002 106.521ZM568.283 130L568.016 130C568.045 130.027 568.074 130.054 568.103 130.081C568.163 130.054 568.223 130.027 568.283 130Z" fill="#2192B5"/>
</svg>
