<svg width="249" height="74" viewBox="0 0 249 74" fill="none" xmlns="http://www.w3.org/2000/svg">
<path d="M223.11 73.3474C231.058 72.7251 239.81 72.253 245.525 68.2186C248.204 66.3088 249.246 63.3688 248.829 60.7079C248.383 57.9397 245.793 55.4933 242.846 53.7766C241.179 52.8109 238.559 52.253 237.369 50.944C236.148 49.6135 236.416 47.3817 236.089 45.901C234.065 36.7809 227.218 27.9611 216.145 23.0255C203.196 17.2315 184.621 17.8967 173.964 25.7723C172.654 21.0083 162.742 19.0341 158.217 22.6178C153.752 8.21864 131.992 -1.67407 111.691 0.235806C91.3893 2.14568 74.4516 14.5706 70.046 28.9697C62.6935 24.2701 48.8813 27.768 47.2144 34.7422C39.8023 29.0985 27.8953 24.1199 18.846 28.3689C13.2199 31.0083 11.1957 36.4804 12.2376 41.2659C13.2795 46.0513 16.8218 50.3431 20.2749 54.5062C12.833 52.253 2.47385 54.4847 0.390134 60.107C-2.73545 68.5191 13.726 68.4547 21.019 68.5405C33.7595 68.6907 46.4106 67.768 58.4664 64.8066C65.9976 71.459 79.006 73.283 90.9129 73.4762C110.768 73.7766 130.712 70.665 148.632 64.4847C150.478 63.8624 152.353 63.1757 154.407 63.1972C156.461 63.2186 158.366 63.9482 160.182 64.6135C178.638 71.4161 202.422 74.9783 223.11 73.3474Z" fill="#D4E4FF"/>
<path d="M216.115 23.0255C203.166 17.2315 184.592 17.8967 173.935 25.7723C172.625 21.0083 162.712 19.0341 158.188 22.6178C153.723 8.21864 131.963 -1.67407 111.661 0.235806C91.3599 2.14568 74.4223 14.5706 70.0167 28.9697C62.6641 24.2701 48.852 27.768 47.185 34.7422C39.7729 29.0985 27.8659 24.1199 18.8166 28.3689C13.1906 31.0083 11.1664 36.4804 12.2083 41.2659C12.5952 42.9611 13.2799 44.6135 14.1729 46.2015C15.4529 45.4289 16.9711 44.8281 18.4892 44.4204C24.6809 42.7895 31.825 43.1757 37.5999 45.4719C37.838 43.9912 39.5348 42.7036 41.559 42.4461C43.5832 42.1886 45.786 42.9611 46.7385 44.2701C48.4353 40.6006 53.9125 38.3045 59.3004 38.1328C64.6585 37.9611 69.8678 39.5277 74.452 41.5663C73.559 40.1714 73.4399 39.9998 74.1543 38.5405C78.1134 30.4719 84.6325 22.6178 95.0213 18.4976C105.41 14.3774 120.175 15.2573 127.2 22.1457C128.182 20.7723 130.623 20.15 132.737 20.4504C134.85 20.7508 136.636 21.8023 137.976 23.004C140.446 25.2358 141.756 28.1543 141.518 31.0083C144.852 27.9182 148.245 28.1757 153.604 28.841C158.962 29.5062 163.665 32.4032 165.362 36.1156C168.666 32.2101 177.299 31.3946 181.853 34.592C195.546 27.0169 215.937 27.0598 230.165 33.8624C226.742 29.4847 222.069 25.6864 216.115 23.0255Z" fill="white"/>
<path d="M214.894 62.4245C202.63 66.2013 186.973 62.8966 179.471 54.9567C174.589 57.6176 167.832 54.6348 163.188 51.7378C155.598 58.7335 143.691 63.1541 131.397 63.5833C119.103 64.0125 106.987 59.0125 98.5335 52.5747C88.6209 61.9095 67.6051 63.6906 54.954 56.2657C52.0963 58.5618 46.7977 59.0339 43.2554 57.2957C32.0331 64.4417 15.9586 67.3172 1.34277 65.0425C5.09347 68.476 15.5418 68.4545 20.9595 68.5189C33.7 68.6691 46.3512 67.7464 58.407 64.785C65.9382 71.4374 78.9465 73.2614 90.8535 73.4545C110.708 73.755 130.653 70.6434 148.573 64.4631C150.418 63.8408 152.293 63.1541 154.347 63.1756C156.401 63.197 158.306 63.9266 160.122 64.5919C178.638 71.4374 202.422 74.9996 223.11 73.3687C229.659 72.8537 236.714 72.4245 242.191 70.0211C232.517 69.2056 223.17 66.5232 214.894 62.4245Z" fill="#B3B2E9"/>
</svg>
