<svg width="304" height="90" viewBox="0 0 304 90" fill="none" xmlns="http://www.w3.org/2000/svg">
<path d="M244.979 67.7022C247.39 61.082 239.293 54.1078 224.588 50.0627C209.853 46.0176 190.772 43.1314 173.715 45.7279C173.328 35.1163 159.248 24.6764 136.298 18.0241C125.909 15.009 113.407 12.7129 100.101 12.4983C86.7945 12.2837 77.8643 12.1442 71.2856 16.3181C69.5294 9.1614 53.4252 2.788 33.8382 1.48971C14.2512 0.191431 -5.93109 4.98757 -14.6232 11.4468C-22.3329 -3.48883 -64.2158 -15.0553 -106.247 -13.8644C-148.279 -12.6626 -184.595 1.12492 -185.697 16.3181C-205.373 11.3181 -239.427 12.8202 -257.615 18.5176C-275.803 24.215 -281.31 34.5155 -270.326 42.2408C-292.324 39.1399 -321.674 42.0799 -339.892 47.4983C-358.11 52.9168 -367.278 62.0048 -363.021 70.3846C-378.5 69.2151 -397.046 72.3052 -404.755 77.2837C-408.417 79.6442 -409.548 83.0026 -403.862 84.7623C-400.707 85.7387 -396.272 85.9532 -392.134 86.1249C-339.565 88.3245 -82.0465 96.0927 -14.7125 78.6786C40.5954 90.8674 112.871 92.8416 172.912 84.0004C208.901 89.1507 242.954 89.1507 279.807 84.8481C295.375 83.0348 315.914 77.1442 295.315 71.6399C284.42 68.7322 258.582 67.3159 244.979 67.7022Z" fill="#D4E4FF"/>
<path d="M243.639 60.5348C240.662 56.4146 233.994 52.6378 224.588 50.0627C209.853 46.0176 190.772 43.1314 173.715 45.7279C173.328 35.1163 159.248 24.6764 136.297 18.0241C125.909 15.009 113.406 12.7129 100.1 12.4983C86.7941 12.2837 77.8639 12.1442 71.2853 16.318C69.529 9.16139 53.4248 2.788 33.8379 1.48971C14.2509 0.19143 -5.9314 4.98757 -14.6235 11.4468C-22.3333 -3.48883 -64.2161 -15.0553 -106.248 -13.8644C-148.279 -12.6626 -184.596 1.12491 -185.697 16.318C-205.373 11.318 -239.427 12.8202 -257.615 18.5176C-275.803 24.215 -281.31 34.5155 -270.326 42.2408C-292.324 39.1399 -321.675 42.0798 -339.892 47.4983C-355.401 52.112 -364.331 59.3867 -364.004 66.6077C-357.187 63.3459 -343.197 62.0906 -333.254 64.2043C-332.183 61.1035 -323.997 58.5283 -315.304 58.5713C-306.583 53.6035 -290.717 50.3739 -274.404 50.2666C-258.091 50.1485 -241.898 53.1528 -232.64 58.0026C-233.087 50.8138 -229.693 43.303 -217.905 37.4983C-206.117 31.6936 -184.477 28.1206 -165.544 30.3953C-177.809 32.7665 -186.679 37.273 -188.882 42.2301C-167.331 37.0798 -138.754 35.9533 -114.612 39.3009C-119.018 34.4833 -130.419 30.5777 -144.023 29.258C-134.705 19.8803 -107.796 13.1743 -80.1714 13.3352C-52.5472 13.4962 -26.2626 20.5348 -17.8384 30.009C-11.2598 26.0927 4.57648 25.1593 15.9476 27.1979C27.3188 29.2365 34.463 33.5391 37.7374 37.9597C29.5811 35.1056 13.0304 37.6378 13.0304 41.7365C36.1597 42.4661 58.5746 45.8996 76.1076 51.3824C73.8453 47.2515 68.8444 43.3137 61.7002 39.9768C67.9514 36.0498 83.7578 35.2773 95.129 37.2086C106.5 39.1399 114.269 43.024 120.848 46.8867C127.367 44.5584 135.583 45.2558 141.596 47.7558C147.609 50.2558 149.395 53.6893 150.943 56.9511C170.679 52.8202 198.452 54.6979 212.681 61.1249C222.176 59.3545 233.607 59.2472 243.639 60.5348Z" fill="white"/>
<path d="M294.243 82.1549C286.415 80.4275 276.413 81.5648 267.393 82.2193C239.114 84.2794 211.639 81.2858 192.439 73.5283C157.432 83.2923 102.035 81.6936 71.8211 70.0305C36.5764 73.6356 -2.62729 70.5562 -31.1743 62.2729C-42.6049 68.6034 -62.3408 72.8953 -83.2077 73.5712C-104.075 74.2579 -121.221 71.3288 -135.628 65.8459C-143.844 71.6936 -158.996 76.2214 -176.439 78.0669C-193.883 79.9124 -213.411 79.0326 -229.098 75.7064C-230.824 75.3416 -232.759 74.9232 -234.724 75.0841C-236.183 75.2021 -237.284 75.5992 -238.504 75.9103C-246.125 77.8738 -257.407 75.1378 -265.504 73.4532C-283.066 79.9876 -306.731 81.5541 -328.164 76.7472C-349.001 83.7322 -381.388 85.6528 -407.673 81.876C-407.375 82.9919 -406.244 84.0112 -403.833 84.7515C-400.678 85.7279 -396.242 85.9425 -392.104 86.1142C-339.535 88.3137 -82.017 96.082 -14.6831 78.6678C40.6248 90.8566 112.9 92.8309 172.941 83.9897C208.93 89.1399 242.984 89.1399 279.836 84.8373C284.599 84.3008 289.868 83.3566 294.243 82.1549Z" fill="#B3B2E9"/>
</svg>
