<svg width="176" height="35" viewBox="0 0 176 35" fill="none" xmlns="http://www.w3.org/2000/svg">
<path d="M197.783 27.6355C197.723 23.3651 185.34 21.3801 174.713 23.2685C178.672 19.76 174.564 15.3179 165.574 13.3437C156.584 11.3801 143.457 12.9252 136.64 15.8115C135.658 8.67627 120.238 1.91661 100.622 0.91876C81.0049 -0.0790942 60.0784 5.48958 58.8282 12.614C52.3686 10.4145 36.8896 10.6076 29.8942 12.5818C22.8989 14.5561 20.7556 18.4402 25.1314 21.2299C19.6542 20.8222 11.3789 21.1655 6.25888 22.0024C-3.86205 23.6655 0.424461 27.217 8.90818 28.2364C23.2263 29.9638 37.0979 31.3694 52.2793 30.6291C58.3817 30.3286 64.5138 30.0282 70.5863 29.6634C71.39 29.6097 80.3798 28.805 80.5584 28.8694C101.247 36.8952 139.051 35.5432 162.925 28.7621C174.534 30.7256 187.989 30.6505 197.783 27.6355Z" fill="#D4E4FF"/>
<path d="M167.568 21.2943C170.218 20.8007 173.552 21.0153 175.903 21.6698C177.332 18.5046 173.224 15.0175 165.574 13.3437C156.584 11.3801 143.457 12.9252 136.64 15.8115C135.658 8.67627 120.238 1.91661 100.621 0.91876C81.0046 -0.0790942 60.0781 5.48958 58.8278 12.614C52.3683 10.4145 36.8892 10.6076 29.8939 12.5818C26.0241 13.6763 23.7023 15.3501 23.0771 17.099C24.1488 17.0776 25.1906 17.0668 26.1432 17.0883C31.6204 17.1741 36.2046 17.8608 40.1041 19.2449C44.599 16.9917 53.3506 15.8866 60.2567 17.5389C63.8883 14.2986 68.6213 11.1226 75.8846 8.81575C83.1776 6.50889 93.4176 5.19987 102.765 6.13335C112.112 7.06683 119.494 10.6183 117.44 14.0303C118.452 13.0754 122.352 12.9145 124.673 13.5046C126.995 14.0947 128.037 15.1355 128.752 16.1226C129.883 17.7428 130.419 19.4059 130.359 21.0797C135.509 19.0947 142.296 17.496 149.797 17.3029C157.358 17.1205 165.485 18.687 167.568 21.2943Z" fill="white"/>
<path d="M156.168 25.6075C151.465 27.8393 143.666 29.1697 135.897 29.0732C128.127 28.9766 120.566 27.7105 116.28 25.3714C109.284 27.5281 99.3124 28.086 90.2035 27.6247C81.0947 27.1633 72.5515 25.7792 64.1273 24.4165C61.6268 25.7792 55.2566 25.8757 52.4584 24.5989C45.1059 27.056 34.5384 27.9465 24.5068 27.7749C16.6482 27.6461 8.99796 26.9272 1.4668 26.0903C2.86587 27.0131 5.54494 27.8285 8.93843 28.2362C23.2566 29.9637 37.1282 31.3693 52.3096 30.629C58.4119 30.3285 64.544 30.0281 70.6166 29.6633C71.4203 29.6096 80.4101 28.8049 80.5887 28.8693C101.277 36.895 139.082 35.5431 162.955 28.762C174.594 30.7255 188.049 30.6504 197.813 27.6354C197.813 27.5066 197.753 27.3779 197.724 27.2491C183.882 28.3972 168.938 27.8285 156.168 25.6075Z" fill="#B3B2E9"/>
</svg>
